# Blender 5.1.1
# www.blender.org
mtllib Treno.mtl
o Cube
v -1.220165 -1.410825 -0.979221
v -1.220165 1.871092 -0.979221
v -1.220165 -1.410825 -3.980236
v -1.220165 1.871092 -3.980236
v 1.220165 -1.410825 -0.979221
v 1.220165 1.871092 -0.979221
v 1.220165 -1.410825 -3.980236
v 1.220165 1.871092 -3.980236
v -1.220165 -0.908503 -0.979221
v -1.220165 -0.908503 -3.980236
v 1.220165 -0.908503 -3.980236
v 1.220165 -0.908503 -0.979221
v 1.220165 -0.908503 2.106077
v 1.220165 -1.410825 2.530311
v -1.220165 -1.410825 2.530311
v -1.220165 -0.908503 2.106077
v 1.304236 -1.452756 -3.985467
v 1.062335 -1.452756 -3.985467
v 1.062335 -1.452756 -0.071245
v 1.304236 -1.452756 -0.071245
v 1.062335 -2.159863 0.221648
v 1.304236 -2.159863 0.221648
v 1.062335 -2.452756 0.928755
v 1.304236 -2.452756 0.928755
v 1.062335 -2.159863 1.635861
v 1.304236 -2.159863 1.635861
v 1.062335 -1.452756 1.928755
v 1.304236 -1.452756 1.928755
v 1.062335 -0.745649 1.635861
v 1.304237 -0.745649 1.635861
v 1.062335 -0.452756 0.928755
v 1.304237 -0.452756 0.928755
v 1.062335 -0.745649 0.221648
v 1.304237 -0.745649 0.221648
v 1.062335 -2.159863 -3.692575
v 1.304236 -2.159863 -3.692575
v 1.062335 -2.452756 -2.985467
v 1.304236 -2.452756 -2.985467
v 1.062335 -2.159863 -2.278360
v 1.304236 -2.159863 -2.278360
v 1.062335 -1.452756 -1.985467
v 1.304236 -1.452756 -1.985467
v 1.062335 -0.745649 -2.278360
v 1.304237 -0.745649 -2.278360
v 1.062335 -0.452756 -2.985467
v 1.304237 -0.452756 -2.985467
v 1.062335 -0.745649 -3.692575
v 1.304237 -0.745649 -3.692575
v 0.000000 1.000000 -1.959675
v 0.000000 1.000000 1.959675
v 0.382683 0.923880 -1.959675
v 0.382683 0.923879 1.959675
v 0.707107 0.707107 -1.959675
v 0.707107 0.707107 1.959675
v 0.923880 0.382684 -1.959675
v 0.923880 0.382683 1.959675
v 1.000000 0.000000 -1.959675
v 1.000000 -0.000000 1.959675
v 0.923880 -0.382683 -1.959675
v 0.923880 -0.382684 1.959675
v 0.707107 -0.707107 -1.959675
v 0.707107 -0.707107 1.959675
v 0.382683 -0.923879 -1.959675
v 0.382683 -0.923880 1.959675
v 0.000000 -1.000000 -1.959675
v 0.000000 -1.000000 1.959675
v -0.382683 -0.923879 -1.959675
v -0.382683 -0.923880 1.959675
v -0.707107 -0.707107 -1.959675
v -0.707107 -0.707107 1.959675
v -0.923880 -0.382683 -1.959675
v -0.923880 -0.382684 1.959675
v -1.000000 0.000000 -1.959675
v -1.000000 -0.000000 1.959675
v -0.923880 0.382684 -1.959675
v -0.923880 0.382683 1.959675
v -0.707107 0.707107 -1.959675
v -0.707107 0.707107 1.959675
v -0.382683 0.923880 -1.959675
v -0.382683 0.923879 1.959675
v 0.000000 0.842102 0.939347
v 0.000000 2.842103 1.126300
v 0.265297 0.842102 1.049237
v 0.133101 2.842103 1.181432
v 0.375186 0.842102 1.314533
v 0.188233 2.842103 1.314533
v 0.265297 0.842102 1.579830
v 0.133101 2.842103 1.447634
v 0.000000 0.842102 1.689720
v 0.000000 2.842103 1.502767
v -0.265297 0.842102 1.579830
v -0.133101 2.842103 1.447634
v -0.375186 0.842102 1.314533
v -0.188233 2.842103 1.314533
v -0.265297 0.842102 1.049237
v -0.133101 2.842103 1.181432
v 0.000000 1.842102 0.805872
v 0.359678 1.842102 0.954855
v 0.508661 1.842102 1.314533
v 0.359678 1.842102 1.674211
v 0.000000 1.842102 1.823195
v -0.359678 1.842102 1.674211
v -0.508661 1.842102 1.314533
v -0.359678 1.842102 0.954855
v 1.220165 -1.410825 -0.979221
v 1.220165 1.871092 -0.979221
v 1.220165 -1.410825 -3.980236
v 1.220165 1.871092 -3.980236
v -1.220165 -1.410825 -0.979221
v -1.220165 1.871092 -0.979221
v -1.220165 -1.410825 -3.980236
v -1.220165 1.871092 -3.980236
v 1.220165 -0.908503 -0.979221
v 1.220165 -0.908503 -3.980236
v -1.220165 -0.908503 -3.980236
v -1.220165 -0.908503 -0.979221
v -1.220165 -0.908503 2.106077
v -1.220165 -1.410825 2.530311
v 1.220165 -1.410825 2.530311
v 1.220165 -0.908503 2.106077
v -1.304236 -1.452756 -3.985467
v -1.062335 -1.452756 -3.985467
v -1.062335 -1.452756 -0.071245
v -1.304236 -1.452756 -0.071245
v -1.062335 -2.159863 0.221648
v -1.304236 -2.159863 0.221648
v -1.062335 -2.452756 0.928755
v -1.304236 -2.452756 0.928755
v -1.062335 -2.159863 1.635861
v -1.304236 -2.159863 1.635861
v -1.062335 -1.452756 1.928755
v -1.304236 -1.452756 1.928755
v -1.062335 -0.745649 1.635861
v -1.304237 -0.745649 1.635861
v -1.062335 -0.452756 0.928755
v -1.304237 -0.452756 0.928755
v -1.062335 -0.745649 0.221648
v -1.304237 -0.745649 0.221648
v -1.062335 -2.159863 -3.692575
v -1.304236 -2.159863 -3.692575
v -1.062335 -2.452756 -2.985467
v -1.304236 -2.452756 -2.985467
v -1.062335 -2.159863 -2.278360
v -1.304236 -2.159863 -2.278360
v -1.062335 -1.452756 -1.985467
v -1.304236 -1.452756 -1.985467
v -1.062335 -0.745649 -2.278360
v -1.304237 -0.745649 -2.278360
v -1.062335 -0.452756 -2.985467
v -1.304237 -0.452756 -2.985467
v -1.062335 -0.745649 -3.692575
v -1.304237 -0.745649 -3.692575
v -0.382683 0.923880 -1.959675
v -0.382683 0.923879 1.959675
v -0.707107 0.707107 -1.959675
v -0.707107 0.707107 1.959675
v -0.923880 0.382684 -1.959675
v -0.923880 0.382683 1.959675
v -1.000000 0.000000 -1.959675
v -1.000000 -0.000000 1.959675
v -0.923880 -0.382683 -1.959675
v -0.923880 -0.382684 1.959675
v -0.707107 -0.707107 -1.959675
v -0.707107 -0.707107 1.959675
v -0.382683 -0.923879 -1.959675
v -0.382683 -0.923880 1.959675
v 0.382683 -0.923879 -1.959675
v 0.382683 -0.923880 1.959675
v 0.707107 -0.707107 -1.959675
v 0.707107 -0.707107 1.959675
v 0.923880 -0.382683 -1.959675
v 0.923880 -0.382684 1.959675
v 1.000000 0.000000 -1.959675
v 1.000000 -0.000000 1.959675
v 0.923880 0.382684 -1.959675
v 0.923880 0.382683 1.959675
v 0.707107 0.707107 -1.959675
v 0.707107 0.707107 1.959675
v 0.382683 0.923880 -1.959675
v 0.382683 0.923879 1.959675
v -0.265297 0.842102 1.049237
v -0.133101 2.842103 1.181432
v -0.375186 0.842102 1.314533
v -0.188233 2.842103 1.314533
v -0.265297 0.842102 1.579830
v -0.133101 2.842103 1.447634
v 0.265297 0.842102 1.579830
v 0.133101 2.842103 1.447634
v 0.375186 0.842102 1.314533
v 0.188233 2.842103 1.314533
v 0.265297 0.842102 1.049237
v 0.133101 2.842103 1.181432
v -0.359678 1.842102 0.954855
v -0.508661 1.842102 1.314533
v -0.359678 1.842102 1.674211
v 0.359678 1.842102 1.674211
v 0.508661 1.842102 1.314533
v 0.359678 1.842102 0.954855
vn -1.0000 -0.0000 -0.0000
vn -0.0000 -0.0000 -1.0000
vn 1.0000 -0.0000 -0.0000
vn -0.0000 -0.0000 1.0000
vn -0.0000 -1.0000 -0.0000
vn -0.0000 1.0000 -0.0000
vn -0.0000 0.6452 0.7640
vn -0.0000 -0.3827 -0.9239
vn -0.0000 0.9239 0.3827
vn -0.0000 -0.9239 -0.3827
vn -0.0000 0.3827 0.9239
vn -0.0000 -0.9239 0.3827
vn -0.0000 -0.3827 0.9239
vn -0.0000 0.3827 -0.9239
vn -0.0000 0.9239 -0.3827
vn 0.1951 0.9808 -0.0000
vn 0.5556 0.8315 -0.0000
vn 0.8315 0.5556 -0.0000
vn 0.9808 0.1951 -0.0000
vn 0.9808 -0.1951 -0.0000
vn 0.8315 -0.5556 -0.0000
vn 0.5556 -0.8315 -0.0000
vn 0.1951 -0.9808 -0.0000
vn -0.1951 -0.9808 -0.0000
vn -0.5556 -0.8315 -0.0000
vn -0.8315 -0.5556 -0.0000
vn -0.9808 -0.1951 -0.0000
vn -0.9808 0.1951 -0.0000
vn -0.8315 0.5556 -0.0000
vn -0.5556 0.8315 -0.0000
vn -0.1951 0.9808 -0.0000
vn 0.3669 0.2839 -0.8859
vn 0.8859 0.2839 -0.3669
vn 0.8859 0.2839 0.3669
vn 0.3669 0.2839 0.8859
vn -0.3669 0.2839 0.8859
vn -0.8859 0.2839 0.3669
vn -0.8859 0.2839 -0.3669
vn -0.3669 0.2839 -0.8859
vn -0.3798 -0.1224 -0.9169
vn -0.9169 -0.1224 -0.3798
vn -0.9169 -0.1224 0.3798
vn -0.3798 -0.1224 0.9169
vn 0.3798 -0.1224 0.9169
vn 0.9169 -0.1224 0.3798
vn 0.9169 -0.1224 -0.3798
vn 0.3798 -0.1224 -0.9169
vt 0.430532 0.000000
vt 0.625000 0.000000
vt 0.625000 0.250000
vt 0.430532 0.250000
vt 0.625000 0.500000
vt 0.430532 0.500000
vt 0.625000 0.750000
vt 0.430532 0.750000
vt 0.625000 1.000000
vt 0.430532 1.000000
vt 0.125000 0.500000
vt 0.375000 0.500000
vt 0.375000 0.750000
vt 0.125000 0.750000
vt 0.875000 0.500000
vt 0.875000 0.750000
vt 0.375000 0.250000
vt 0.375000 0.000000
vt 0.375000 1.000000
vt 0.419706 0.419706
vt 0.250000 0.490000
vt 0.080294 0.419706
vt 0.010000 0.250000
vt 0.080294 0.080294
vt 0.250000 0.010000
vt 0.419706 0.080294
vt 0.490000 0.250000
vt 1.000000 0.500000
vt 1.000000 1.000000
vt 0.875000 1.000000
vt 0.250000 1.000000
vt 0.250000 0.500000
vt 0.750000 1.000000
vt 0.750000 0.500000
vt 0.500000 0.500000
vt 0.500000 1.000000
vt 0.750000 0.490000
vt 0.919706 0.419706
vt 0.990000 0.250000
vt 0.919706 0.080294
vt 0.750000 0.010000
vt 0.580294 0.080294
vt 0.510000 0.250000
vt 0.580294 0.419706
vt 0.125000 1.000000
vt 0.000000 1.000000
vt 0.000000 0.500000
vt 0.937500 1.000000
vt 0.937500 0.500000
vt 0.812500 1.000000
vt 0.812500 0.500000
vt 0.687500 1.000000
vt 0.687500 0.500000
vt 0.562500 1.000000
vt 0.562500 0.500000
vt 0.437500 1.000000
vt 0.437500 0.500000
vt 0.312500 1.000000
vt 0.312500 0.500000
vt 0.187500 1.000000
vt 0.187500 0.500000
vt 0.341844 0.471731
vt 0.250000 0.490000
vt 0.158156 0.471731
vt 0.080294 0.419706
vt 0.028269 0.341844
vt 0.010000 0.250000
vt 0.028269 0.158156
vt 0.080294 0.080294
vt 0.158156 0.028269
vt 0.250000 0.010000
vt 0.341844 0.028269
vt 0.419706 0.080294
vt 0.471731 0.158156
vt 0.490000 0.250000
vt 0.471731 0.341844
vt 0.419706 0.419706
vt 0.062500 1.000000
vt 0.062500 0.500000
vt 0.750000 0.490000
vt 0.841844 0.471731
vt 0.919706 0.419706
vt 0.971731 0.341844
vt 0.990000 0.250000
vt 0.971731 0.158156
vt 0.919706 0.080294
vt 0.841844 0.028269
vt 0.750000 0.010000
vt 0.658156 0.028269
vt 0.580294 0.080294
vt 0.528269 0.158156
vt 0.510000 0.250000
vt 0.528269 0.341844
vt 0.580294 0.419706
vt 0.658156 0.471731
vt 1.022235 0.750000
vt 0.875000 0.750000
vt 0.750000 0.750000
vt 0.625000 0.750000
vt 0.500000 0.750000
vt 0.375000 0.750000
vt 0.250000 0.750000
vt 0.125000 0.750000
vt -0.022235 0.750000
s 0
f 9/1/1 2/2/1 4/3/1 10/4/1
f 10/4/2 4/3/2 8/5/2 11/6/2
f 11/6/3 8/5/3 6/7/3 12/8/3
f 12/8/4 6/7/4 2/9/4 9/10/4
f 3/11/5 7/12/5 5/13/5 1/14/5
f 8/5/6 4/15/6 2/16/6 6/7/6
f 5/13/3 12/8/3 13/8/3 14/13/3
f 7/12/3 11/6/3 12/8/3 5/13/3
f 3/17/2 10/4/2 11/6/2 7/12/2
f 1/18/1 9/1/1 10/4/1 3/17/1
f 14/13/7 13/8/7 16/10/7 15/19/7
f 12/8/6 9/10/6 16/10/6 13/8/6
f 9/1/1 1/18/1 15/18/1 16/1/1
f 1/14/5 5/13/5 14/13/5 15/14/5
f 36/20/3 17/21/3 48/22/3 46/23/3 44/24/3 42/25/3 40/26/3 38/27/3
f 19/28/8 20/29/8 22/30/8 21/15/8
f 43/12/9 44/19/9 46/31/9 45/32/9
f 21/15/10 22/30/10 24/33/10 23/34/10
f 41/35/11 42/36/11 44/19/11 43/12/11
f 23/34/12 24/33/12 26/9/12 25/5/12
f 39/5/13 40/9/13 42/36/13 41/35/13
f 25/5/13 26/9/13 28/36/13 27/35/13
f 18/37/1 35/38/1 37/39/1 39/40/1 41/41/1 43/42/1 45/43/1 47/44/1
f 37/34/12 38/33/12 40/9/12 39/5/12
f 27/35/11 28/36/11 30/19/11 29/12/11
f 47/11/14 48/45/14 17/46/14 18/47/14
f 35/15/10 36/30/10 38/33/10 37/34/10
f 29/12/9 30/19/9 32/31/9 31/32/9
f 22/20/3 20/21/3 34/22/3 32/23/3 30/24/3 28/25/3 26/26/3 24/27/3
f 18/28/8 17/29/8 36/30/8 35/15/8
f 31/32/15 32/31/15 34/45/15 33/11/15
f 45/32/15 46/31/15 48/45/15 47/11/15
f 33/11/14 34/45/14 20/46/14 19/47/14
f 19/37/1 21/38/1 23/39/1 25/40/1 27/41/1 29/42/1 31/43/1 33/44/1
f 49/28/16 50/29/16 52/48/16 51/49/16
f 51/49/17 52/48/17 54/30/17 53/15/17
f 53/15/18 54/30/18 56/50/18 55/51/18
f 55/51/19 56/50/19 58/33/19 57/34/19
f 57/34/20 58/33/20 60/52/20 59/53/20
f 59/53/21 60/52/21 62/9/21 61/5/21
f 61/5/22 62/9/22 64/54/22 63/55/22
f 63/55/23 64/54/23 66/36/23 65/35/23
f 65/35/24 66/36/24 68/56/24 67/57/24
f 67/57/25 68/56/25 70/19/25 69/12/25
f 69/12/26 70/19/26 72/58/26 71/59/26
f 71/59/27 72/58/27 74/31/27 73/32/27
f 73/32/28 74/31/28 76/60/28 75/61/28
f 75/61/29 76/60/29 78/45/29 77/11/29
f 52/62/4 50/63/4 80/64/4 78/65/4 76/66/4 74/67/4 72/68/4 70/69/4 68/70/4 66/71/4 64/72/4 62/73/4 60/74/4 58/75/4 56/76/4 54/77/4
f 77/11/30 78/45/30 80/78/30 79/79/30
f 79/79/31 80/78/31 50/46/31 49/47/31
f 49/80/2 51/81/2 53/82/2 55/83/2 57/84/2 59/85/2 61/86/2 63/87/2 65/88/2 67/89/2 69/90/2 71/91/2 73/92/2 75/93/2 77/94/2 79/95/2
f 97/96/32 82/29/32 84/30/32 98/97/32
f 98/97/33 84/30/33 86/33/33 99/98/33
f 99/98/34 86/33/34 88/9/34 100/99/34
f 100/99/35 88/9/35 90/36/35 101/100/35
f 101/100/36 90/36/36 92/19/36 102/101/36
f 102/101/37 92/19/37 94/31/37 103/102/37
f 84/77/6 82/63/6 96/65/6 94/67/6 92/69/6 90/71/6 88/73/6 86/75/6
f 103/102/38 94/31/38 96/45/38 104/103/38
f 104/103/39 96/45/39 82/46/39 97/104/39
f 81/80/5 83/82/5 85/84/5 87/86/5 89/88/5 91/90/5 93/92/5 95/94/5
f 95/11/40 104/103/40 97/104/40 81/47/40
f 93/32/41 103/102/41 104/103/41 95/11/41
f 91/12/42 102/101/42 103/102/42 93/32/42
f 89/35/43 101/100/43 102/101/43 91/12/43
f 87/5/44 100/99/44 101/100/44 89/35/44
f 85/34/45 99/98/45 100/99/45 87/5/45
f 83/15/46 98/97/46 99/98/46 85/34/46
f 81/28/47 97/96/47 98/97/47 83/15/47
f 113/1/3 114/4/3 108/3/3 106/2/3
f 114/4/2 115/6/2 112/5/2 108/3/2
f 115/6/1 116/8/1 110/7/1 112/5/1
f 116/8/4 113/10/4 106/9/4 110/7/4
f 107/11/5 105/14/5 109/13/5 111/12/5
f 112/5/6 110/7/6 106/16/6 108/15/6
f 109/13/1 118/13/1 117/8/1 116/8/1
f 111/12/1 109/13/1 116/8/1 115/6/1
f 107/17/2 111/12/2 115/6/2 114/4/2
f 105/18/3 107/17/3 114/4/3 113/1/3
f 118/13/7 119/19/7 120/10/7 117/8/7
f 116/8/6 117/8/6 120/10/6 113/10/6
f 113/1/3 120/1/3 119/18/3 105/18/3
f 105/14/5 119/14/5 118/13/5 109/13/5
f 140/20/1 142/27/1 144/26/1 146/25/1 148/24/1 150/23/1 152/22/1 121/21/1
f 123/28/8 125/15/8 126/30/8 124/29/8
f 147/12/9 149/32/9 150/31/9 148/19/9
f 125/15/10 127/34/10 128/33/10 126/30/10
f 145/35/11 147/12/11 148/19/11 146/36/11
f 127/34/12 129/5/12 130/9/12 128/33/12
f 143/5/13 145/35/13 146/36/13 144/9/13
f 129/5/13 131/35/13 132/36/13 130/9/13
f 122/37/3 151/44/3 149/43/3 147/42/3 145/41/3 143/40/3 141/39/3 139/38/3
f 141/34/12 143/5/12 144/9/12 142/33/12
f 131/35/11 133/12/11 134/19/11 132/36/11
f 151/11/14 122/47/14 121/46/14 152/45/14
f 139/15/10 141/34/10 142/33/10 140/30/10
f 133/12/9 135/32/9 136/31/9 134/19/9
f 126/20/1 128/27/1 130/26/1 132/25/1 134/24/1 136/23/1 138/22/1 124/21/1
f 122/28/8 139/15/8 140/30/8 121/29/8
f 135/32/15 137/11/15 138/45/15 136/31/15
f 149/32/15 151/11/15 152/45/15 150/31/15
f 137/11/14 123/47/14 124/46/14 138/45/14
f 123/37/3 137/44/3 135/43/3 133/42/3 131/41/3 129/40/3 127/39/3 125/38/3
f 49/28/31 153/49/31 154/48/31 50/29/31
f 153/49/30 155/15/30 156/30/30 154/48/30
f 155/15/29 157/51/29 158/50/29 156/30/29
f 157/51/28 159/34/28 160/33/28 158/50/28
f 159/34/27 161/53/27 162/52/27 160/33/27
f 161/53/26 163/5/26 164/9/26 162/52/26
f 163/5/25 165/55/25 166/54/25 164/9/25
f 165/55/24 65/35/24 66/36/24 166/54/24
f 65/35/23 167/57/23 168/56/23 66/36/23
f 167/57/22 169/12/22 170/19/22 168/56/22
f 169/12/21 171/59/21 172/58/21 170/19/21
f 171/59/20 173/32/20 174/31/20 172/58/20
f 173/32/19 175/61/19 176/60/19 174/31/19
f 175/61/18 177/11/18 178/45/18 176/60/18
f 154/62/4 156/77/4 158/76/4 160/75/4 162/74/4 164/73/4 166/72/4 66/71/4 168/70/4 170/69/4 172/68/4 174/67/4 176/66/4 178/65/4 180/64/4 50/63/4
f 177/11/17 179/79/17 180/78/17 178/45/17
f 179/79/16 49/47/16 50/46/16 180/78/16
f 49/80/2 179/95/2 177/94/2 175/93/2 173/92/2 171/91/2 169/90/2 167/89/2 65/88/2 165/87/2 163/86/2 161/85/2 159/84/2 157/83/2 155/82/2 153/81/2
f 97/96/39 193/97/39 182/30/39 82/29/39
f 193/97/38 194/98/38 184/33/38 182/30/38
f 194/98/37 195/99/37 186/9/37 184/33/37
f 195/99/36 101/100/36 90/36/36 186/9/36
f 101/100/35 196/101/35 188/19/35 90/36/35
f 196/101/34 197/102/34 190/31/34 188/19/34
f 182/77/6 184/75/6 186/73/6 90/71/6 188/69/6 190/67/6 192/65/6 82/63/6
f 197/102/33 198/103/33 192/45/33 190/31/33
f 198/103/32 97/104/32 82/46/32 192/45/32
f 81/80/5 191/94/5 189/92/5 187/90/5 89/88/5 185/86/5 183/84/5 181/82/5
f 191/11/47 81/47/47 97/104/47 198/103/47
f 189/32/46 191/11/46 198/103/46 197/102/46
f 187/12/45 189/32/45 197/102/45 196/101/45
f 89/35/44 187/12/44 196/101/44 101/100/44
f 185/5/43 89/35/43 101/100/43 195/99/43
f 183/34/42 185/5/42 195/99/42 194/98/42
f 181/15/41 183/34/41 194/98/41 193/97/41
f 81/28/40 181/15/40 193/97/40 97/96/40
